<?xml version="1.0" encoding="utf-8"?>
<!-- Generator: Adobe Illustrator 23.0.3, SVG Export Plug-In . SVG Version: 6.00 Build 0)  -->
<svg version="1.2" baseProfile="tiny" id="Layer_1" xmlns="http://www.w3.org/2000/svg" xmlns:xlink="http://www.w3.org/1999/xlink"
	 x="0px" y="0px" viewBox="0 0 1024 1024" xml:space="preserve">
<g>
	<path fill="#1C1C1C" d="M67.86,979.5c-16.74,0-30.36-13.62-30.36-30.36V73.86c0-16.74,13.62-30.36,30.36-30.36h875.28
		c16.74,0,30.36,13.62,30.36,30.36v875.28c0,16.74-13.62,30.36-30.36,30.36H67.86z"/>
	<path d="M943.14,44C959.61,44,973,57.39,973,73.86v875.28c0,16.46-13.39,29.86-29.86,29.86H67.86C51.39,979,38,965.61,38,949.14
		V73.86C38,57.39,51.39,44,67.86,44H943.14 M943.14,43H67.86C50.82,43,37,56.82,37,73.86v875.28C37,966.18,50.82,980,67.86,980
		h875.28c17.04,0,30.86-13.82,30.86-30.86V73.86C974,56.82,960.18,43,943.14,43L943.14,43z"/>
</g>
<g>
	<rect x="77.5" y="86.5" fill="#474747" width="256" height="855"/>
	<path d="M333,87v854H78V87H333 M334,86H77v856h257V86L334,86z"/>
</g>
<g>
	<rect x="382.5" y="86.5" fill="#474747" width="545" height="855"/>
	<path d="M927,87v854H383V87H927 M928,86H382v856h546V86L928,86z"/>
</g>
<g>
	<path fill="#8C8C8C" d="M439.5,169.5c-5.51,0-10-4.49-10-10s4.49-10,10-10h434c5.51,0,10,4.49,10,10s-4.49,10-10,10H439.5z"/>
	<path d="M873.5,150c5.24,0,9.5,4.26,9.5,9.5s-4.26,9.5-9.5,9.5h-434c-5.24,0-9.5-4.26-9.5-9.5s4.26-9.5,9.5-9.5H873.5 M873.5,149
		h-434c-5.8,0-10.5,4.7-10.5,10.5s4.7,10.5,10.5,10.5h434c5.8,0,10.5-4.7,10.5-10.5S879.3,149,873.5,149L873.5,149z"/>
</g>
<g>
	<path fill="#8C8C8C" d="M109.5,169.5c-5.51,0-10-4.49-10-10s4.49-10,10-10h76c5.51,0,10,4.49,10,10s-4.49,10-10,10H109.5z"/>
	<path d="M185.5,150c5.24,0,9.5,4.26,9.5,9.5c0,5.24-4.26,9.5-9.5,9.5h-76c-5.24,0-9.5-4.26-9.5-9.5c0-5.24,4.26-9.5,9.5-9.5H185.5
		 M185.5,149h-76c-5.8,0-10.5,4.7-10.5,10.5v0c0,5.8,4.7,10.5,10.5,10.5h76c5.8,0,10.5-4.7,10.5-10.5v0
		C196,153.7,191.3,149,185.5,149L185.5,149z"/>
</g>
<g>
	<path fill="#8C8C8C" d="M109.5,218.5c-5.51,0-10-4.49-10-10s4.49-10,10-10h115c5.51,0,10,4.49,10,10s-4.49,10-10,10H109.5z"/>
	<path d="M224.5,199c5.24,0,9.5,4.26,9.5,9.5s-4.26,9.5-9.5,9.5h-115c-5.24,0-9.5-4.26-9.5-9.5s4.26-9.5,9.5-9.5H224.5 M224.5,198
		h-115c-5.8,0-10.5,4.7-10.5,10.5v0c0,5.8,4.7,10.5,10.5,10.5h115c5.8,0,10.5-4.7,10.5-10.5v0C235,202.7,230.3,198,224.5,198
		L224.5,198z"/>
</g>
<g>
	<path fill="#8C8C8C" d="M109.5,276.5c-5.51,0-10-4.49-10-10s4.49-10,10-10h92c5.51,0,10,4.49,10,10s-4.49,10-10,10H109.5z"/>
	<path d="M201.5,257c5.24,0,9.5,4.26,9.5,9.5s-4.26,9.5-9.5,9.5h-92c-5.24,0-9.5-4.26-9.5-9.5s4.26-9.5,9.5-9.5H201.5 M201.5,256
		h-92c-5.8,0-10.5,4.7-10.5,10.5s4.7,10.5,10.5,10.5h92c5.8,0,10.5-4.7,10.5-10.5S207.3,256,201.5,256L201.5,256z"/>
</g>
<g>
	<path fill="#8C8C8C" d="M109.5,334.5c-5.51,0-10-4.49-10-10s4.49-10,10-10h147c5.51,0,10,4.49,10,10s-4.49,10-10,10H109.5z"/>
	<path d="M256.5,315c5.24,0,9.5,4.26,9.5,9.5s-4.26,9.5-9.5,9.5h-147c-5.24,0-9.5-4.26-9.5-9.5s4.26-9.5,9.5-9.5H256.5 M256.5,314
		h-147c-5.8,0-10.5,4.7-10.5,10.5s4.7,10.5,10.5,10.5h147c5.8,0,10.5-4.7,10.5-10.5S262.3,314,256.5,314L256.5,314z"/>
</g>
<g>
	<path fill="#8C8C8C" d="M533.5,228.5c-5.51,0-10-4.49-10-10s4.49-10,10-10h340c5.51,0,10,4.49,10,10s-4.49,10-10,10H533.5z"/>
	<path d="M873.5,209c5.24,0,9.5,4.26,9.5,9.5s-4.26,9.5-9.5,9.5h-340c-5.24,0-9.5-4.26-9.5-9.5s4.26-9.5,9.5-9.5H873.5 M873.5,208
		h-340c-5.8,0-10.5,4.7-10.5,10.5s4.7,10.5,10.5,10.5h340c5.8,0,10.5-4.7,10.5-10.5S879.3,208,873.5,208L873.5,208z"/>
</g>
<g>
	<path fill="#8C8C8C" d="M533.5,287.5c-5.51,0-10-4.49-10-10s4.49-10,10-10h260c5.51,0,10,4.49,10,10s-4.49,10-10,10H533.5z"/>
	<path d="M793.5,268c5.24,0,9.5,4.26,9.5,9.5s-4.26,9.5-9.5,9.5h-260c-5.24,0-9.5-4.26-9.5-9.5s4.26-9.5,9.5-9.5H793.5 M793.5,267
		h-260c-5.8,0-10.5,4.7-10.5,10.5s4.7,10.5,10.5,10.5h260c5.8,0,10.5-4.7,10.5-10.5S799.3,267,793.5,267L793.5,267z"/>
</g>
<g>
	<path fill="#8C8C8C" d="M436.5,346.5c-5.51,0-10-4.49-10-10s4.49-10,10-10h434c5.51,0,10,4.49,10,10s-4.49,10-10,10H436.5z"/>
	<path d="M870.5,327c5.24,0,9.5,4.26,9.5,9.5s-4.26,9.5-9.5,9.5h-434c-5.24,0-9.5-4.26-9.5-9.5s4.26-9.5,9.5-9.5H870.5 M870.5,326
		h-434c-5.8,0-10.5,4.7-10.5,10.5s4.7,10.5,10.5,10.5h434c5.8,0,10.5-4.7,10.5-10.5S876.3,326,870.5,326L870.5,326z"/>
</g>
<g>
	<path fill="#8C8C8C" d="M533.5,405.5c-5.51,0-10-4.49-10-10s4.49-10,10-10h163c5.51,0,10,4.49,10,10s-4.49,10-10,10H533.5z"/>
	<path d="M696.5,386c5.24,0,9.5,4.26,9.5,9.5s-4.26,9.5-9.5,9.5h-163c-5.24,0-9.5-4.26-9.5-9.5s4.26-9.5,9.5-9.5H696.5 M696.5,385
		h-163c-5.8,0-10.5,4.7-10.5,10.5s4.7,10.5,10.5,10.5h163c5.8,0,10.5-4.7,10.5-10.5S702.3,385,696.5,385L696.5,385z"/>
</g>
<g>
	<path fill="#8C8C8C" d="M625.5,464.5c-5.51,0-10-4.49-10-10s4.49-10,10-10h245c5.51,0,10,4.49,10,10s-4.49,10-10,10H625.5z"/>
	<path d="M870.5,445c5.24,0,9.5,4.26,9.5,9.5s-4.26,9.5-9.5,9.5h-245c-5.24,0-9.5-4.26-9.5-9.5s4.26-9.5,9.5-9.5H870.5 M870.5,444
		h-245c-5.8,0-10.5,4.7-10.5,10.5s4.7,10.5,10.5,10.5h245c5.8,0,10.5-4.7,10.5-10.5S876.3,444,870.5,444L870.5,444z"/>
</g>
<g>
	<path fill="#8C8C8C" d="M625.5,523.5c-5.51,0-10-4.49-10-10c0-5.51,4.49-10,10-10h248c5.51,0,10,4.49,10,10c0,5.51-4.49,10-10,10
		H625.5z"/>
	<path d="M873.5,504c5.24,0,9.5,4.26,9.5,9.5c0,5.24-4.26,9.5-9.5,9.5h-248c-5.24,0-9.5-4.26-9.5-9.5c0-5.24,4.26-9.5,9.5-9.5H873.5
		 M873.5,503h-248c-5.8,0-10.5,4.7-10.5,10.5c0,5.8,4.7,10.5,10.5,10.5h248c5.8,0,10.5-4.7,10.5-10.5C884,507.7,879.3,503,873.5,503
		L873.5,503z"/>
</g>
<g>
	<path fill="#8C8C8C" d="M439.5,582.5c-5.51,0-10-4.49-10-10s4.49-10,10-10h165c5.51,0,10,4.49,10,10s-4.49,10-10,10H439.5z"/>
	<path d="M604.5,563c5.24,0,9.5,4.26,9.5,9.5s-4.26,9.5-9.5,9.5h-165c-5.24,0-9.5-4.26-9.5-9.5s4.26-9.5,9.5-9.5H604.5 M604.5,562
		h-165c-5.8,0-10.5,4.7-10.5,10.5s4.7,10.5,10.5,10.5h165c5.8,0,10.5-4.7,10.5-10.5S610.3,562,604.5,562L604.5,562z"/>
</g>
<g>
	<path fill="#8C8C8C" d="M439.5,641.5c-5.51,0-10-4.49-10-10s4.49-10,10-10h298c5.51,0,10,4.49,10,10s-4.49,10-10,10H439.5z"/>
	<path d="M737.5,622c5.24,0,9.5,4.26,9.5,9.5s-4.26,9.5-9.5,9.5h-298c-5.24,0-9.5-4.26-9.5-9.5s4.26-9.5,9.5-9.5H737.5 M737.5,621
		h-298c-5.8,0-10.5,4.7-10.5,10.5s4.7,10.5,10.5,10.5h298c5.8,0,10.5-4.7,10.5-10.5S743.3,621,737.5,621L737.5,621z"/>
</g>
<g>
	<path fill="#8C8C8C" d="M532.5,700.5c-5.51,0-10-4.49-10-10s4.49-10,10-10h261c5.51,0,10,4.49,10,10s-4.49,10-10,10H532.5z"/>
	<path d="M793.5,681c5.24,0,9.5,4.26,9.5,9.5s-4.26,9.5-9.5,9.5h-261c-5.24,0-9.5-4.26-9.5-9.5s4.26-9.5,9.5-9.5H793.5 M793.5,680
		h-261c-5.8,0-10.5,4.7-10.5,10.5s4.7,10.5,10.5,10.5h261c5.8,0,10.5-4.7,10.5-10.5S799.3,680,793.5,680L793.5,680z"/>
</g>
<g>
	<path fill="#8C8C8C" d="M532.5,759.5c-5.51,0-10-4.49-10-10s4.49-10,10-10h297c5.51,0,10,4.49,10,10s-4.49,10-10,10H532.5z"/>
	<path d="M829.5,740c5.24,0,9.5,4.26,9.5,9.5s-4.26,9.5-9.5,9.5h-297c-5.24,0-9.5-4.26-9.5-9.5s4.26-9.5,9.5-9.5H829.5 M829.5,739
		h-297c-5.8,0-10.5,4.7-10.5,10.5s4.7,10.5,10.5,10.5h297c5.8,0,10.5-4.7,10.5-10.5S835.3,739,829.5,739L829.5,739z"/>
</g>
<g>
	<path fill="#8C8C8C" d="M439.5,818.5c-5.51,0-10-4.49-10-10s4.49-10,10-10h165c5.51,0,10,4.49,10,10s-4.49,10-10,10H439.5z"/>
	<path d="M604.5,799c5.24,0,9.5,4.26,9.5,9.5s-4.26,9.5-9.5,9.5h-165c-5.24,0-9.5-4.26-9.5-9.5s4.26-9.5,9.5-9.5H604.5 M604.5,798
		h-165c-5.8,0-10.5,4.7-10.5,10.5s4.7,10.5,10.5,10.5h165c5.8,0,10.5-4.7,10.5-10.5S610.3,798,604.5,798L604.5,798z"/>
</g>
<g>
	<path fill="#8C8C8C" d="M532.5,877.5c-5.51,0-10-4.49-10-10s4.49-10,10-10h338c5.51,0,10,4.49,10,10s-4.49,10-10,10H532.5z"/>
	<path d="M870.5,858c5.24,0,9.5,4.26,9.5,9.5s-4.26,9.5-9.5,9.5h-338c-5.24,0-9.5-4.26-9.5-9.5s4.26-9.5,9.5-9.5H870.5 M870.5,857
		h-338c-5.8,0-10.5,4.7-10.5,10.5s4.7,10.5,10.5,10.5h338c5.8,0,10.5-4.7,10.5-10.5S876.3,857,870.5,857L870.5,857z"/>
</g>
<g>
	<circle fill="#993434" cx="914" cy="64" r="13.5"/>
	<path d="M914,51c7.17,0,13,5.83,13,13s-5.83,13-13,13s-13-5.83-13-13S906.83,51,914,51 M914,50c-7.73,0-14,6.27-14,14
		s6.27,14,14,14s14-6.27,14-14S921.73,50,914,50L914,50z"/>
</g>
<g>
	<circle fill="#279B66" cx="884" cy="64" r="13.5"/>
	<path d="M884,51c7.17,0,13,5.83,13,13s-5.83,13-13,13s-13-5.83-13-13S876.83,51,884,51 M884,50c-7.73,0-14,6.27-14,14
		s6.27,14,14,14s14-6.27,14-14S891.73,50,884,50L884,50z"/>
</g>
<g>
	<circle fill="#3E64AF" cx="853" cy="64" r="13.5"/>
	<path d="M853,51c7.17,0,13,5.83,13,13s-5.83,13-13,13s-13-5.83-13-13S845.83,51,853,51 M853,50c-7.73,0-14,6.27-14,14
		s6.27,14,14,14s14-6.27,14-14S860.73,50,853,50L853,50z"/>
</g>
</svg>
