<svg version="1.2" baseProfile="tiny" xmlns="http://www.w3.org/2000/svg" viewBox="0 0 1024 1024"><path fill="#1C1C1C" d="M67.86 979.5c-16.74 0-30.36-13.62-30.36-30.36V73.86c0-16.74 13.62-30.36 30.36-30.36h875.28c16.74 0 30.36 13.62 30.36 30.36v875.28c0 16.74-13.62 30.36-30.36 30.36H67.86z"/><path d="M943.14 44C959.61 44 973 57.39 973 73.86v875.28c0 16.46-13.39 29.86-29.86 29.86H67.86C51.39 979 38 965.61 38 949.14V73.86C38 57.39 51.39 44 67.86 44h875.28m0-1H67.86C50.82 43 37 56.82 37 73.86v875.28C37 966.18 50.82 980 67.86 980h875.28c17.04 0 30.86-13.82 30.86-30.86V73.86C974 56.82 960.18 43 943.14 43z"/><path fill="#474747" d="M77.5 86.5h256v855h-256z"/><path d="M333 87v854H78V87h255m1-1H77v856h257V86z"/><path fill="#474747" d="M382.5 86.5h545v855h-545z"/><path d="M927 87v854H383V87h544m1-1H382v856h546V86z"/><path fill="#8C8C8C" d="M439.5 169.5c-5.51 0-10-4.49-10-10s4.49-10 10-10h434c5.51 0 10 4.49 10 10s-4.49 10-10 10h-434z"/><path d="M873.5 150c5.24 0 9.5 4.26 9.5 9.5s-4.26 9.5-9.5 9.5h-434c-5.24 0-9.5-4.26-9.5-9.5s4.26-9.5 9.5-9.5h434m0-1h-434c-5.8 0-10.5 4.7-10.5 10.5s4.7 10.5 10.5 10.5h434c5.8 0 10.5-4.7 10.5-10.5s-4.7-10.5-10.5-10.5z"/><path fill="#8C8C8C" d="M109.5 169.5c-5.51 0-10-4.49-10-10s4.49-10 10-10h76c5.51 0 10 4.49 10 10s-4.49 10-10 10h-76z"/><path d="M185.5 150c5.24 0 9.5 4.26 9.5 9.5s-4.26 9.5-9.5 9.5h-76c-5.24 0-9.5-4.26-9.5-9.5s4.26-9.5 9.5-9.5h76m0-1h-76c-5.8 0-10.5 4.7-10.5 10.5s4.7 10.5 10.5 10.5h76c5.8 0 10.5-4.7 10.5-10.5s-4.7-10.5-10.5-10.5z"/><path fill="#8C8C8C" d="M109.5 218.5c-5.51 0-10-4.49-10-10s4.49-10 10-10h115c5.51 0 10 4.49 10 10s-4.49 10-10 10h-115z"/><path d="M224.5 199c5.24 0 9.5 4.26 9.5 9.5s-4.26 9.5-9.5 9.5h-115c-5.24 0-9.5-4.26-9.5-9.5s4.26-9.5 9.5-9.5h115m0-1h-115c-5.8 0-10.5 4.7-10.5 10.5s4.7 10.5 10.5 10.5h115c5.8 0 10.5-4.7 10.5-10.5s-4.7-10.5-10.5-10.5z"/><path fill="#8C8C8C" d="M109.5 276.5c-5.51 0-10-4.49-10-10s4.49-10 10-10h92c5.51 0 10 4.49 10 10s-4.49 10-10 10h-92z"/><path d="M201.5 257c5.24 0 9.5 4.26 9.5 9.5s-4.26 9.5-9.5 9.5h-92c-5.24 0-9.5-4.26-9.5-9.5s4.26-9.5 9.5-9.5h92m0-1h-92c-5.8 0-10.5 4.7-10.5 10.5s4.7 10.5 10.5 10.5h92c5.8 0 10.5-4.7 10.5-10.5s-4.7-10.5-10.5-10.5z"/><path fill="#8C8C8C" d="M109.5 334.5c-5.51 0-10-4.49-10-10s4.49-10 10-10h147c5.51 0 10 4.49 10 10s-4.49 10-10 10h-147z"/><path d="M256.5 315c5.24 0 9.5 4.26 9.5 9.5s-4.26 9.5-9.5 9.5h-147c-5.24 0-9.5-4.26-9.5-9.5s4.26-9.5 9.5-9.5h147m0-1h-147c-5.8 0-10.5 4.7-10.5 10.5s4.7 10.5 10.5 10.5h147c5.8 0 10.5-4.7 10.5-10.5s-4.7-10.5-10.5-10.5z"/><path fill="#8C8C8C" d="M533.5 228.5c-5.51 0-10-4.49-10-10s4.49-10 10-10h340c5.51 0 10 4.49 10 10s-4.49 10-10 10h-340z"/><path d="M873.5 209c5.24 0 9.5 4.26 9.5 9.5s-4.26 9.5-9.5 9.5h-340c-5.24 0-9.5-4.26-9.5-9.5s4.26-9.5 9.5-9.5h340m0-1h-340c-5.8 0-10.5 4.7-10.5 10.5s4.7 10.5 10.5 10.5h340c5.8 0 10.5-4.7 10.5-10.5s-4.7-10.5-10.5-10.5z"/><path fill="#8C8C8C" d="M533.5 287.5c-5.51 0-10-4.49-10-10s4.49-10 10-10h260c5.51 0 10 4.49 10 10s-4.49 10-10 10h-260z"/><path d="M793.5 268c5.24 0 9.5 4.26 9.5 9.5s-4.26 9.5-9.5 9.5h-260c-5.24 0-9.5-4.26-9.5-9.5s4.26-9.5 9.5-9.5h260m0-1h-260c-5.8 0-10.5 4.7-10.5 10.5s4.7 10.5 10.5 10.5h260c5.8 0 10.5-4.7 10.5-10.5s-4.7-10.5-10.5-10.5z"/><path fill="#8C8C8C" d="M436.5 346.5c-5.51 0-10-4.49-10-10s4.49-10 10-10h434c5.51 0 10 4.49 10 10s-4.49 10-10 10h-434z"/><path d="M870.5 327c5.24 0 9.5 4.26 9.5 9.5s-4.26 9.5-9.5 9.5h-434c-5.24 0-9.5-4.26-9.5-9.5s4.26-9.5 9.5-9.5h434m0-1h-434c-5.8 0-10.5 4.7-10.5 10.5s4.7 10.5 10.5 10.5h434c5.8 0 10.5-4.7 10.5-10.5s-4.7-10.5-10.5-10.5z"/><path fill="#8C8C8C" d="M533.5 405.5c-5.51 0-10-4.49-10-10s4.49-10 10-10h163c5.51 0 10 4.49 10 10s-4.49 10-10 10h-163z"/><path d="M696.5 386c5.24 0 9.5 4.26 9.5 9.5s-4.26 9.5-9.5 9.5h-163c-5.24 0-9.5-4.26-9.5-9.5s4.26-9.5 9.5-9.5h163m0-1h-163c-5.8 0-10.5 4.7-10.5 10.5s4.7 10.5 10.5 10.5h163c5.8 0 10.5-4.7 10.5-10.5s-4.7-10.5-10.5-10.5z"/><path fill="#8C8C8C" d="M625.5 464.5c-5.51 0-10-4.49-10-10s4.49-10 10-10h245c5.51 0 10 4.49 10 10s-4.49 10-10 10h-245z"/><path d="M870.5 445c5.24 0 9.5 4.26 9.5 9.5s-4.26 9.5-9.5 9.5h-245c-5.24 0-9.5-4.26-9.5-9.5s4.26-9.5 9.5-9.5h245m0-1h-245c-5.8 0-10.5 4.7-10.5 10.5s4.7 10.5 10.5 10.5h245c5.8 0 10.5-4.7 10.5-10.5s-4.7-10.5-10.5-10.5z"/><path fill="#8C8C8C" d="M625.5 523.5c-5.51 0-10-4.49-10-10s4.49-10 10-10h248c5.51 0 10 4.49 10 10s-4.49 10-10 10h-248z"/><path d="M873.5 504c5.24 0 9.5 4.26 9.5 9.5s-4.26 9.5-9.5 9.5h-248c-5.24 0-9.5-4.26-9.5-9.5s4.26-9.5 9.5-9.5h248m0-1h-248c-5.8 0-10.5 4.7-10.5 10.5s4.7 10.5 10.5 10.5h248c5.8 0 10.5-4.7 10.5-10.5s-4.7-10.5-10.5-10.5z"/><path fill="#8C8C8C" d="M439.5 582.5c-5.51 0-10-4.49-10-10s4.49-10 10-10h165c5.51 0 10 4.49 10 10s-4.49 10-10 10h-165z"/><path d="M604.5 563c5.24 0 9.5 4.26 9.5 9.5s-4.26 9.5-9.5 9.5h-165c-5.24 0-9.5-4.26-9.5-9.5s4.26-9.5 9.5-9.5h165m0-1h-165c-5.8 0-10.5 4.7-10.5 10.5s4.7 10.5 10.5 10.5h165c5.8 0 10.5-4.7 10.5-10.5s-4.7-10.5-10.5-10.5z"/><path fill="#8C8C8C" d="M439.5 641.5c-5.51 0-10-4.49-10-10s4.49-10 10-10h298c5.51 0 10 4.49 10 10s-4.49 10-10 10h-298z"/><path d="M737.5 622c5.24 0 9.5 4.26 9.5 9.5s-4.26 9.5-9.5 9.5h-298c-5.24 0-9.5-4.26-9.5-9.5s4.26-9.5 9.5-9.5h298m0-1h-298c-5.8 0-10.5 4.7-10.5 10.5s4.7 10.5 10.5 10.5h298c5.8 0 10.5-4.7 10.5-10.5s-4.7-10.5-10.5-10.5z"/><path fill="#8C8C8C" d="M532.5 700.5c-5.51 0-10-4.49-10-10s4.49-10 10-10h261c5.51 0 10 4.49 10 10s-4.49 10-10 10h-261z"/><path d="M793.5 681c5.24 0 9.5 4.26 9.5 9.5s-4.26 9.5-9.5 9.5h-261c-5.24 0-9.5-4.26-9.5-9.5s4.26-9.5 9.5-9.5h261m0-1h-261c-5.8 0-10.5 4.7-10.5 10.5s4.7 10.5 10.5 10.5h261c5.8 0 10.5-4.7 10.5-10.5s-4.7-10.5-10.5-10.5z"/><path fill="#8C8C8C" d="M532.5 759.5c-5.51 0-10-4.49-10-10s4.49-10 10-10h297c5.51 0 10 4.49 10 10s-4.49 10-10 10h-297z"/><path d="M829.5 740c5.24 0 9.5 4.26 9.5 9.5s-4.26 9.5-9.5 9.5h-297c-5.24 0-9.5-4.26-9.5-9.5s4.26-9.5 9.5-9.5h297m0-1h-297c-5.8 0-10.5 4.7-10.5 10.5s4.7 10.5 10.5 10.5h297c5.8 0 10.5-4.7 10.5-10.5s-4.7-10.5-10.5-10.5z"/><path fill="#8C8C8C" d="M439.5 818.5c-5.51 0-10-4.49-10-10s4.49-10 10-10h165c5.51 0 10 4.49 10 10s-4.49 10-10 10h-165z"/><path d="M604.5 799c5.24 0 9.5 4.26 9.5 9.5s-4.26 9.5-9.5 9.5h-165c-5.24 0-9.5-4.26-9.5-9.5s4.26-9.5 9.5-9.5h165m0-1h-165c-5.8 0-10.5 4.7-10.5 10.5s4.7 10.5 10.5 10.5h165c5.8 0 10.5-4.7 10.5-10.5s-4.7-10.5-10.5-10.5z"/><path fill="#8C8C8C" d="M532.5 877.5c-5.51 0-10-4.49-10-10s4.49-10 10-10h338c5.51 0 10 4.49 10 10s-4.49 10-10 10h-338z"/><path d="M870.5 858c5.24 0 9.5 4.26 9.5 9.5s-4.26 9.5-9.5 9.5h-338c-5.24 0-9.5-4.26-9.5-9.5s4.26-9.5 9.5-9.5h338m0-1h-338c-5.8 0-10.5 4.7-10.5 10.5s4.7 10.5 10.5 10.5h338c5.8 0 10.5-4.7 10.5-10.5s-4.7-10.5-10.5-10.5z"/><circle fill="#993434" cx="914" cy="64" r="13.5"/><path d="M914 51c7.17 0 13 5.83 13 13s-5.83 13-13 13-13-5.83-13-13 5.83-13 13-13m0-1c-7.73 0-14 6.27-14 14s6.27 14 14 14 14-6.27 14-14-6.27-14-14-14z"/><circle fill="#279B66" cx="884" cy="64" r="13.5"/><path d="M884 51c7.17 0 13 5.83 13 13s-5.83 13-13 13-13-5.83-13-13 5.83-13 13-13m0-1c-7.73 0-14 6.27-14 14s6.27 14 14 14 14-6.27 14-14-6.27-14-14-14z"/><circle fill="#3E64AF" cx="853" cy="64" r="13.5"/><path d="M853 51c7.17 0 13 5.83 13 13s-5.83 13-13 13-13-5.83-13-13 5.83-13 13-13m0-1c-7.73 0-14 6.27-14 14s6.27 14 14 14 14-6.27 14-14-6.27-14-14-14z"/></svg>