<?xml version="1.0" encoding="utf-8"?>
<!-- Svg Vector Icons : http://www.onlinewebfonts.com/icon -->
<!DOCTYPE svg PUBLIC "-//W3C//DTD SVG 1.1//EN" "http://www.w3.org/Graphics/SVG/1.1/DTD/svg11.dtd">
<svg version="1.1" xmlns="http://www.w3.org/2000/svg" xmlns:xlink="http://www.w3.org/1999/xlink" x="0px" y="0px" viewBox="0 0 1000 1000" enable-background="new 0 0 1000 1000" xml:space="preserve">
<metadata> Svg Vector Icons : http://www.onlinewebfonts.com/icon </metadata>
<g><g transform="translate(0.000000,511.000000) scale(0.100000,-0.100000)"><path d="M2334.3,4981.7c-33.2-17.6-144.5-166-289-382.8c-195.3-291-238.3-367.1-238.3-425.7c0-58.6,43-134.7,238.3-425.7c263.6-394.5,306.6-433.6,431.6-396.5c105.5,31.3,146.5,85.9,146.5,195.3c0,76.2-15.6,113.3-103.5,242.2c-58.6,84-101.6,158.2-95.7,162.1c3.9,3.9,759.7,5.9,1679.5,3.9l1673.7-5.9l-109.4-164c-132.8-197.3-144.5-281.2-56.6-373c68.3-70.3,142.6-87.9,226.5-52.7c93.8,39.1,544.9,712.8,544.9,814.4c0,101.6-451.1,775.3-544.9,814.4c-84,35.1-158.2,17.6-226.5-52.7c-87.9-91.8-76.2-175.8,56.6-373l109.4-164.1l-1673.7-5.8c-919.8-2-1675.6,0-1679.5,3.9c-5.9,3.9,37.1,76.2,91.8,158.2c154.3,230.4,152.3,363.3-9.8,431.6C2424.1,5018.8,2402.7,5018.8,2334.3,4981.7z"/><path d="M3885,3516.9c-242.2-64.4-443.3-236.3-554.6-470.7l-62.5-132.8l-9.8-1497.9l-9.8-1499.9l-308.6,322.2c-322.2,335.9-412.1,404.3-583.9,451.1c-386.7,101.5-804.6-85.9-968.7-437.5c-46.9-101.6-52.7-132.8-52.7-335.9c2-267.6,27.3-347.6,207-626.9c146.5-230.4,300.8-531.2,603.5-1189.3c326.1-707,626.9-1304.6,816.3-1622.9c402.3-675.7,789-1066.3,1195.2-1212.8l126.9-44.9l1269.4-5.8c1439.3-5.9,1302.6-21.5,1634.6,167.9c687.4,388.6,1203,1001.9,1390.5,1650.2c87.9,306.6,91.8,390.6,85.9,1810.4L8658,179.4l-62.5,130.8c-117.2,246.1-349.6,419.9-628.9,468.7c-160.1,27.3-316.4,5.8-476.5-68.4l-101.6-46.9l-68.4,117.2c-205.1,349.6-624.9,509.7-996,376.9c-70.3-23.4-140.6-50.8-158.2-58.6c-25.4-9.8-46.9,9.8-89.8,89.8c-78.1,136.7-251.9,298.8-390.6,361.3c-160.1,72.3-451.1,85.9-619.1,27.3c-64.4-23.4-123-41-130.8-41c-7.8,0-17.6,318.3-21.5,708.9l-5.9,707l-52.7,113.3C4687.6,3425.2,4267.7,3620.5,3885,3516.9z M4293.1,3079.5c87.9-44.9,146.5-109.4,185.5-199.2c25.4-62.5,29.3-216.8,29.3-1093.7c0-931.6,3.9-1027.2,33.2-1070.2c52.7-76.2,87.9-95.7,175.8-97.6c123,0,175.8,56.6,210.9,224.6c44.9,216.8,173.8,337.9,380.8,357.4c117.2,11.7,218.7-21.5,306.6-99.6c119.1-103.5,142.6-181.6,142.6-478.5c0-298.8,19.5-361.3,130.8-406.2c138.7-58.6,261.7,25.4,287.1,199.2c46.9,347.6,449.2,492.1,710.9,253.9c95.7-85.9,109.4-140.6,121.1-466.7l9.8-310.5l64.4-56.6c70.3-62.5,150.4-72.2,234.4-29.3c64.5,33.2,95.7,89.8,113.3,207c15.6,109.4,46.9,169.9,119.2,236.3c99.6,93.7,175.8,119.1,320.3,111.3c162.1-7.8,273.4-76.2,343.7-210.9l46.9-87.9l-7.8-1337.8c-5.9-1287-7.8-1343.6-46.9-1484.2c-179.7-638.6-589.8-1136.6-1246-1511.6l-156.2-89.8H5578.2c-1144.4,0-1232.3,1.9-1320.2,35.1c-285.1,109.4-587.8,435.5-925.7,999.9c-228.5,382.8-376.9,673.8-792.9,1562.4C2180-990.5,2049.2-736.6,1851.9-418.3c-87.9,140.6-117.2,228.5-117.2,343.7c0,91.8,54.7,216.8,119.1,277.3c107.4,97.6,300.8,132.8,433.5,76.2c39.1-15.6,259.8-232.4,568.3-554.6c541-568.3,562.5-585.9,695.3-531.2c123,50.8,115.2-56.6,121.1,1878.7c5.9,1978.3-5.9,1818.2,154.3,1956.9C3957.2,3140,4136.9,3159.6,4293.1,3079.5z"/></g></g>
</svg>