{
    "asset" : {
        "generator" : "Khronos glTF Blender I/O v1.3.48",
        "version" : "2.0"
    },
    "scene" : 0,
    "scenes" : [
        {
            "name" : "Scene",
            "nodes" : [
                0
            ]
        }
    ],
    "nodes" : [
        {
            "mesh" : 0,
            "name" : "RedBot"
        }
    ],
    "meshes" : [
        {
            "name" : "Cylinder.009",
            "primitives" : [
                {
                    "attributes" : {
                        "POSITION" : 0,
                        "NORMAL" : 1
                    },
                    "indices" : 2
                }
            ]
        }
    ],
    "accessors" : [
        {
            "bufferView" : 0,
            "componentType" : 5126,
            "count" : 107276,
            "max" : [
                0.31877830624580383,
                0.3247833847999573,
                0.24505802989006042
            ],
            "min" : [
                -0.31877830624580383,
                -1.2008949518203735,
                -0.28369230031967163
            ],
            "type" : "VEC3"
        },
        {
            "bufferView" : 1,
            "componentType" : 5126,
            "count" : 107276,
            "type" : "VEC3"
        },
        {
            "bufferView" : 2,
            "componentType" : 5125,
            "count" : 127020,
            "type" : "SCALAR"
        }
    ],
    "bufferViews" : [
        {
            "buffer" : 0,
            "byteLength" : 1287312,
            "byteOffset" : 0
        },
        {
            "buffer" : 0,
            "byteLength" : 1287312,
            "byteOffset" : 1287312
        },
        {
            "buffer" : 0,
            "byteLength" : 508080,
            "byteOffset" : 2574624
        }
    ],
    "buffers" : [
        {
            "byteLength" : 3082704,
            "uri" : "data:application/octet-stream;base64,"
        }
    ]
}
